<?xml version="1.0" standalone="no"?>
<!DOCTYPE svg PUBLIC "-//W3C//DTD SVG 20010904//EN"
 "http://www.w3.org/TR/2001/REC-SVG-20010904/DTD/svg10.dtd">
<svg version="1.0" xmlns="http://www.w3.org/2000/svg"
 width="440.000000pt" height="440.000000pt" viewBox="0 0 440.000000 440.000000"
 preserveAspectRatio="xMidYMid meet">
<metadata>
Created by potrace 1.16, written by Peter Selinger 2001-2019
</metadata>
<g transform="translate(0.000000,440.000000) scale(0.100000,-0.100000)"
fill="#000000" stroke="none">
<path fill="#ffffff" d="M2110 4213 c-196 -11 -373 -44 -550 -103 -663 -223 -1165 -776 -1324
-1460 -29 -129 -34 -162 -45 -320 -41 -568 174 -1142 580 -1550 269 -270 587
-451 951 -540 598 -147 1213 -17 1709 361 109 83 288 261 369 368 378 499 507
1112 360 1709 -129 528 -464 976 -942 1262 -169 101 -424 197 -633 239 -83 16
-390 46 -413 39 -4 -1 -32 -3 -62 -5z m352 -168 c614 -93 1124 -458 1402
-1005 136 -267 198 -530 198 -840 0 -520 -187 -968 -559 -1331 -205 -202 -394
-321 -668 -424 -324 -122 -732 -143 -1090 -54 -518 128 -971 493 -1215 979
-204 405 -247 918 -116 1352 100 329 240 564 475 797 299 295 632 460 1071
530 94 15 391 12 502 -4z"/>
<path fill="#ffffff" d="M2056 3108 c-9 -12 -16 -39 -16 -60 0 -47 28 -78 70 -78 28 0 30 -2
30 -38 l0 -38 -69 -16 c-38 -9 -92 -27 -120 -41 l-51 -24 -16 24 c-14 23 -14
26 2 37 20 15 14 51 -15 87 l-18 23 -73 -49 c-39 -28 -74 -53 -77 -58 -2 -4 5
-23 17 -42 22 -35 61 -48 76 -24 4 6 13 -1 24 -18 l18 -28 -48 -50 c-66 -70
-87 -104 -117 -187 -20 -55 -27 -99 -31 -174 -5 -125 8 -192 59 -294 l40 -80
119 0 119 0 -48 45 c-90 84 -139 212 -128 334 13 131 111 272 231 331 150 72
362 35 472 -82 222 -237 94 -627 -226 -688 -30 -6 -232 -10 -464 -11 l-411 0
73 -37 c39 -20 72 -39 72 -42 0 -3 -33 -22 -72 -42 l-73 -37 444 0 c373 -1
453 1 505 15 192 50 352 207 410 403 20 68 21 226 2 297 -20 74 -80 183 -136
246 l-49 55 19 27 c11 17 20 24 24 17 15 -24 54 -11 76 24 27 43 24 47 -67
106 l-66 43 -23 -29 c-27 -34 -31 -73 -9 -81 19 -8 19 -14 -4 -43 -17 -22 -19
-23 -43 -7 -29 19 -164 66 -190 66 -14 0 -18 8 -18 40 0 38 2 40 30 40 42 0
70 31 70 78 0 21 -7 48 -16 60 -14 21 -22 22 -154 22 -132 0 -140 -1 -154 -22z"/>
<path fill="#ffffff" d="M2306 2496 c-69 -99 -91 -125 -114 -129 -32 -6 -59 -54 -48 -82 3 -9
-1 -27 -10 -41 -13 -19 -14 -27 -4 -39 17 -20 36 -19 52 4 8 11 26 23 42 27
35 8 60 46 53 80 -4 21 12 50 72 138 97 139 92 131 85 150 -15 39 -44 14 -128
-108z"/>
<path fill="#ffffff" d="M3214 2039 c4 -24 10 -63 13 -86 l6 -43 -248 0 -247 0 -64 -60 c-36
-33 -81 -69 -102 -79 l-37 -20 348 -1 c271 0 347 -3 347 -12 0 -7 -5 -42 -10
-77 -6 -35 -9 -65 -7 -67 2 -2 71 35 153 82 82 47 180 102 218 121 l69 35 -99
52 c-92 49 -232 129 -313 179 l-34 21 7 -45z"/>
</g>
</svg>
