<?xml version="1.0" standalone="no"?>
<!DOCTYPE svg PUBLIC "-//W3C//DTD SVG 20010904//EN"
 "http://www.w3.org/TR/2001/REC-SVG-20010904/DTD/svg10.dtd">
<svg version="1.0" xmlns="http://www.w3.org/2000/svg"
 width="652.000000pt" height="652.000000pt" viewBox="0 0 652.000000 652.000000"
 preserveAspectRatio="xMidYMid meet">

<g transform="translate(0.000000,652.000000) scale(0.100000,-0.100000)"
fill="#0078bf" stroke="none">
<path d="M3115 6064 c-22 -2 -92 -9 -155 -15 -725 -66 -1424 -447 -1891 -1029
-869 -1083 -810 -2648 138 -3662 437 -467 987 -757 1633 -860 125 -19 182 -23
410 -23 274 0 338 6 560 50 1047 209 1893 1016 2155 2055 128 504 110 1055
-50 1549 -190 587 -571 1097 -1084 1449 -364 251 -803 416 -1240 467 -129 15
-404 26 -476 19z m519 -194 c760 -114 1433 -553 1850 -1210 64 -101 196 -372
241 -494 48 -130 109 -371 130 -516 23 -154 31 -465 16 -627 -41 -447 -224
-937 -480 -1288 -505 -691 -1290 -1094 -2131 -1095 -317 0 -620 52 -907 157
-159 58 -416 187 -548 275 -222 149 -471 378 -627 579 -210 271 -372 594 -463
924 -155 568 -115 1174 116 1716 135 318 316 586 559 830 438 440 1005 706
1635 769 140 14 450 4 609 -20z"/>
<path fill="#0078bf" d="M3090 4600 c-13 -13 -20 -33 -20 -60 0 -49 27 -80 70 -80 28 0 30 -2
30 -40 0 -35 -3 -40 -22 -40 -13 0 -61 -14 -108 -31 -47 -16 -92 -32 -100 -35
-9 -3 -21 5 -29 17 -12 20 -11 24 3 34 23 17 20 45 -8 80 l-24 30 -72 -50
c-39 -27 -74 -53 -76 -57 -3 -5 5 -24 17 -44 20 -33 25 -35 55 -29 30 5 36 3
45 -19 11 -23 7 -30 -44 -85 -94 -103 -137 -222 -137 -386 0 -108 28 -213 78
-292 l27 -43 117 0 117 0 -48 45 c-55 52 -103 136 -121 214 -41 175 60 371
233 452 66 31 79 34 167 33 74 0 108 -5 153 -23 108 -43 186 -120 228 -228 31
-82 32 -215 1 -294 -44 -110 -129 -196 -239 -241 -57 -22 -68 -23 -503 -28
l-445 -5 74 -39 75 -39 -74 -36 -74 -36 440 -3 c289 -1 457 1 492 9 200 41
390 232 432 436 19 88 8 243 -22 324 -25 67 -94 174 -141 218 -24 22 -25 25
-10 47 13 20 21 23 48 18 29 -5 35 -2 54 30 12 20 20 39 17 44 -2 4 -37 30
-76 57 l-72 50 -24 -30 c-28 -35 -31 -63 -8 -80 15 -11 15 -14 0 -37 l-17 -26
-62 28 c-34 15 -88 33 -119 40 l-58 13 0 39 c0 37 1 38 34 38 25 0 39 7 50 22
23 32 20 94 -4 118 -18 18 -33 20 -150 20 -117 0 -132 -2 -150 -20z"/>
<path fill="#0078bf" d="M3148 4151 c-64 -21 -115 -50 -144 -82 -17 -20 -15 -19 21 4 68 44
136 60 218 53 40 -3 85 -7 101 -9 31 -2 41 9 27 32 -15 24 -154 25 -223 2z"/>
<path fill="#0078bf" d="M3335 3985 c-60 -87 -92 -125 -106 -125 -33 0 -62 -38 -56 -73 2 -19
-2 -41 -10 -54 -9 -13 -13 -30 -9 -38 8 -21 43 -19 56 4 5 11 24 22 40 26 38
8 64 46 57 82 -4 21 10 48 72 137 96 138 92 131 85 150 -15 39 -44 14 -129
-109z"/>
<path fill="#0078bf" d="M3088 4057 c-52 -22 -138 -81 -138 -94 0 -4 8 1 18 9 63 56 206 85
287 58 30 -10 40 -10 51 1 27 28 0 44 -83 47 -64 2 -88 -2 -135 -21z"/>
<path fill="#0078bf" d="M3089 3986 c-47 -16 -100 -50 -125 -77 -16 -19 -14 -18 19 4 21 14
54 31 74 38 34 11 125 8 170 -6 31 -10 44 22 18 41 -24 17 -108 17 -156 0z"/>
<path fill="#0078bf" d="M4244 3530 c4 -25 10 -64 13 -87 l6 -43 -250 0 -249 0 -39 -41 c-22
-23 -67 -59 -99 -80 l-59 -39 346 0 c394 0 356 11 336 -94 -6 -32 -9 -60 -6
-62 2 -2 80 39 173 92 93 53 191 107 218 121 l49 25 -74 40 c-105 57 -319 178
-348 197 l-24 15 7 -44z"/>
<path fill="#0078bf" d="M1168 2483 c-35 -22 -52 -64 -45 -110 8 -46 37 -76 111 -116 92 -49
117 -113 63 -161 -17 -14 -32 -17 -65 -13 -53 6 -63 15 -71 64 -5 29 -11 39
-29 41 -21 3 -22 0 -22 -53 0 -54 1 -56 35 -71 51 -21 153 -18 192 6 97 59 73
174 -50 236 -66 34 -97 66 -97 102 0 37 28 62 69 62 51 0 68 -14 75 -65 6 -36
11 -45 27 -45 16 0 19 7 19 56 0 53 -1 55 -35 70 -47 19 -143 18 -177 -3z"/>
<path fill="#0078bf" d="M2041 2481 c-21 -39 11 -67 58 -50 17 7 22 15 19 36 -2 23 -8 29 -35
31 -23 2 -34 -2 -42 -17z"/>
<path fill="#0078bf" d="M2995 2485 c-46 -25 -82 -63 -106 -113 -32 -69 -25 -175 16 -234 81
-115 273 -120 354 -8 77 106 58 253 -42 334 -35 28 -47 31 -115 34 -56 2 -85
-1 -107 -13z m164 -44 c51 -36 66 -68 69 -149 3 -65 0 -84 -20 -121 -31 -61
-66 -84 -122 -83 -83 1 -134 58 -143 161 -15 163 106 271 216 192z"/>
<path fill="#0078bf" d="M4522 2488 c-19 -19 -14 -48 11 -57 45 -17 85 21 57 54 -15 18 -52
19 -68 3z"/>
<path fill="#0078bf" d="M2585 2398 c-4 -13 -21 -35 -38 -50 -31 -27 -32 -28 -9 -34 21 -6 22
-12 22 -93 0 -91 12 -149 32 -163 20 -12 81 -9 100 5 22 18 9 34 -26 33 -37
-1 -44 18 -45 126 l-1 76 40 7 c52 9 53 33 3 37 -36 3 -38 5 -41 41 -4 42 -27
51 -37 15z"/>
<path fill="#0078bf" d="M3801 2401 c-12 -12 -21 -27 -21 -35 0 -12 -11 -13 -53 -9 -59 6
-108 -12 -127 -46 -17 -33 -12 -86 12 -116 20 -26 21 -28 4 -57 -16 -26 -16
-31 -3 -51 14 -21 13 -25 -9 -44 -24 -21 -32 -66 -16 -89 15 -23 59 -37 113
-37 73 0 120 26 136 76 22 67 -14 117 -85 117 -15 0 -43 3 -63 6 -30 5 -36 10
-32 25 4 14 11 18 24 14 28 -9 93 12 118 39 19 20 22 33 19 68 -3 24 -8 51
-12 60 -6 13 -1 21 19 30 19 9 25 18 23 37 -4 32 -22 37 -47 12z m-58 -88 c25
-29 26 -83 1 -107 -37 -38 -94 -6 -94 52 0 62 56 95 93 55z m35 -275 c19 -16
14 -55 -10 -72 -30 -22 -91 -20 -118 2 -19 16 -22 24 -16 56 l7 38 62 -7 c34
-4 68 -12 75 -17z"/>
<path fill="#0078bf" d="M1458 2353 c-25 -6 -23 -33 2 -33 19 0 20 -7 20 -185 l0 -185 -26
-10 c-44 -17 -16 -30 67 -30 62 0 79 3 79 14 0 9 -12 16 -27 18 -26 3 -28 6
-31 59 l-3 55 59 -4 c52 -4 61 -1 91 24 19 15 40 43 47 61 29 69 9 174 -40
208 -26 19 -97 19 -122 0 -25 -19 -34 -19 -34 0 0 15 -41 19 -82 8z m195 -45
c34 -27 40 -137 9 -194 -16 -30 -56 -38 -92 -19 -30 15 -30 16 -30 100 0 78 2
85 26 104 30 24 62 27 87 9z"/>
<path fill="#0078bf" d="M1798 2353 c-26 -6 -22 -31 5 -35 21 -3 22 -7 25 -115 3 -109 2 -112
-20 -115 -13 -2 -24 -10 -26 -19 -3 -15 8 -17 83 -17 75 0 86 2 83 17 -2 9
-15 17 -31 19 l-27 3 0 89 c0 80 2 90 22 104 12 9 37 16 55 16 23 0 33 5 38
20 3 11 3 24 0 30 -11 17 -61 11 -89 -11 l-26 -20 0 20 c0 18 -6 21 -37 20
-21 -1 -46 -3 -55 -6z"/>
<path fill="#0078bf" d="M2038 2353 c-25 -6 -23 -33 2 -33 19 0 20 -7 20 -114 0 -105 -1 -114
-20 -119 -11 -3 -20 -12 -20 -20 0 -11 17 -14 75 -15 59 0 75 2 75 14 0 8 -11
19 -26 24 l-25 10 2 127 1 128 -33 2 c-19 0 -42 -1 -51 -4z"/>
<path fill="#0078bf" d="M2202 2349 c-26 -10 -21 -29 9 -29 18 0 19 -8 19 -114 l0 -114 -26
-6 c-50 -13 -20 -31 54 -33 59 -2 72 1 72 13 0 9 -9 18 -20 21 -18 5 -20 14
-20 93 0 81 2 89 26 114 31 31 69 34 84 7 5 -11 10 -62 10 -114 0 -93 0 -95
-26 -101 -50 -13 -20 -31 54 -33 59 -2 72 1 72 13 0 9 -9 18 -20 21 -18 5 -20
14 -20 110 0 99 -9 138 -34 155 -23 16 -93 8 -120 -13 l-26 -20 0 20 c0 17 -6
21 -32 20 -18 0 -43 -4 -56 -10z"/>
<path fill="#0078bf" d="M3358 2353 c-28 -7 -22 -33 7 -33 l25 0 0 -114 c0 -111 -1 -115 -22
-118 -13 -2 -24 -10 -26 -19 -3 -15 8 -17 83 -17 75 0 86 2 83 17 -2 9 -15 17
-31 19 l-27 3 0 89 c0 80 2 90 22 104 12 9 37 16 55 16 23 0 33 5 38 20 3 11
3 24 0 30 -11 17 -61 11 -89 -11 l-26 -20 0 20 c0 18 -6 21 -37 20 -21 -1 -46
-3 -55 -6z"/>
<path fill="#0078bf" d="M3918 2344 c-28 -15 -45 -54 -33 -73 3 -6 17 -11 29 -11 18 0 25 7
29 30 5 21 14 31 32 36 35 9 55 -11 55 -57 0 -38 0 -38 -54 -49 -72 -15 -106
-46 -106 -98 0 -25 7 -45 18 -55 23 -21 91 -22 118 -2 25 19 34 19 34 0 0 -17
65 -21 89 -6 18 11 5 31 -20 31 -18 0 -19 8 -19 115 0 102 -2 117 -20 135 -25
25 -111 27 -152 4z m112 -187 c0 -36 -4 -46 -24 -56 -38 -21 -70 -11 -74 22
-2 16 2 35 9 43 10 12 54 30 82 33 4 1 7 -18 7 -42z"/>
<path fill="#0078bf" d="M4168 2353 c-25 -6 -23 -33 2 -33 19 0 20 -7 20 -114 0 -105 -1 -114
-20 -119 -11 -3 -20 -12 -20 -20 0 -12 15 -15 75 -15 59 -1 75 2 75 14 0 8
-11 19 -25 24 -24 9 -25 13 -25 89 0 71 3 83 26 110 27 32 61 40 82 19 8 -8
12 -48 12 -114 0 -93 -2 -102 -20 -107 -11 -3 -20 -12 -20 -20 0 -12 15 -15
75 -15 59 -1 75 2 75 14 0 8 -11 19 -25 24 -25 9 -25 11 -25 120 0 97 -2 112
-20 130 -24 24 -79 26 -120 5 -27 -14 -30 -14 -30 0 0 11 -10 15 -37 14 -21
-1 -46 -3 -55 -6z"/>
<path fill="#0078bf" d="M4513 2353 c-13 -2 -23 -11 -23 -18 0 -7 10 -15 23 -17 21 -3 22 -7
25 -115 3 -109 2 -112 -20 -115 -13 -2 -24 -10 -26 -19 -3 -14 8 -17 72 -17
61 0 76 3 76 15 0 8 -9 17 -20 20 -19 5 -20 14 -20 139 l0 134 -32 -1 c-18 -1
-43 -4 -55 -6z"/>
<path fill="#0078bf" d="M4996 2338 c-37 -28 -56 -75 -56 -138 0 -61 19 -111 51 -134 49 -34
179 -12 179 30 0 18 -11 18 -46 -1 -69 -36 -124 5 -124 91 0 23 2 24 90 24
l90 0 0 29 c0 39 -14 75 -40 101 -28 28 -105 27 -144 -2z m102 -21 c6 -7 12
-26 14 -42 3 -30 2 -30 -49 -33 -47 -3 -53 -1 -53 16 0 27 38 72 60 72 9 0 22
-6 28 -13z"/>
<path fill="#0078bf" d="M5228 2353 c-26 -6 -22 -31 5 -35 21 -3 22 -7 25 -115 3 -109 2 -112
-20 -115 -13 -2 -24 -10 -26 -19 -3 -15 8 -17 83 -17 75 0 86 2 83 17 -2 9
-15 17 -31 19 l-27 3 0 89 c0 80 2 90 22 104 12 9 37 16 54 16 24 0 33 5 37
22 3 12 4 25 1 30 -10 15 -61 8 -88 -13 l-26 -20 0 20 c0 18 -6 21 -37 20 -21
-1 -46 -3 -55 -6z"/>
<path fill="#0078bf" d="M4670 2299 c0 -42 3 -50 17 -47 10 2 21 18 27 36 8 31 11 32 59 32
49 0 49 0 35 -22 -88 -135 -138 -217 -138 -226 0 -8 34 -12 110 -12 l110 0 0
51 c0 58 -19 64 -34 11 -8 -30 -11 -32 -58 -32 -37 0 -47 3 -41 13 4 6 38 61
75 122 37 60 68 113 68 117 0 5 -52 8 -115 8 l-115 0 0 -51z"/>
</g>
</svg>
